<svg xmlns="http://www.w3.org/2000/svg" xmlns:xlink="http://www.w3.org/1999/xlink" id="&#x421;&#x43B;&#x43E;&#x439;_1" data-name="&#x421;&#x43B;&#x43E;&#x439; 1" viewBox="0 0 594.43 110"><defs><style>.cls-1{fill:#fff;}.cls-2{fill:url(#linear-gradient);}.cls-3{fill:#4e4bdb;}.cls-4{fill:#54ac70;}</style><linearGradient id="linear-gradient" x1="6.71" y1="-597.92" x2="111.45" y2="-597.92" gradientTransform="matrix(1, 0, 0, -1, 0, -563.59)" gradientUnits="userSpaceOnUse"><stop offset="0" stop-color="#ff0d00"></stop><stop offset="0.07" stop-color="#fd0e09"></stop><stop offset="0.18" stop-color="#f90f23"></stop><stop offset="0.32" stop-color="#f1114c"></stop><stop offset="0.49" stop-color="#e71485"></stop><stop offset="0.57" stop-color="#e216a1"></stop><stop offset="1" stop-color="#681fff"></stop></linearGradient></defs><path class="cls-1" d="M74.1.2H7.59A5.55,5.55,0,0,0,2.18,4.41a30.08,30.08,0,0,0-.84,6.94,29.45,29.45,0,0,0,23.15,28.7,18.08,18.08,0,0,0-5,8.3L12.62,72.82l-1.36,5.65L9.86,84.3A19.72,19.72,0,0,0,22.4,109.21a19.48,19.48,0,0,0,6.6,1h7.83a6,6,0,0,0,5.75-4.42L50.45,76.2H80a17.8,17.8,0,0,0,3.17-.29l1.12-.16a38.26,38.26,0,0,0,32.56-37.57A37.7,37.7,0,0,0,106.26,12l-.32-.35-.63-.61-.22-.22-.51-.49A37.64,37.64,0,0,0,80,.31ZM37.53,104.7a.71.71,0,0,1-.65.5H29.12a14.71,14.71,0,0,1-15-13.8A14.49,14.49,0,0,1,27.87,76.21H45.08ZM32.69,71.2H28.61a19.33,19.33,0,0,0-10.74,3.19L24.65,50.2A12.17,12.17,0,0,1,35,41.2H80A15.23,15.23,0,0,1,95.43,55.91a14.89,14.89,0,0,1-6.52,12.56A17.52,17.52,0,0,1,80,71.2ZM78.86,5.3a32.49,32.49,0,0,1,22.06,8.6l.4.39.26.24.56.55.19.21a32.53,32.53,0,0,1-.85,46h0c-.79.76-1.62,1.48-2.48,2.16a20.33,20.33,0,0,0,1.6-8.25c-.16-11-9.47-20-20.76-20H50.46s-14.92-.06-15.28,0H30.93A24.19,24.19,0,0,1,6.74,11.06a23.76,23.76,0,0,1,.69-5.69.27.27,0,0,1,.26-.17H74Z" transform="translate(-1.34 -0.2)"></path><path class="cls-2" d="M111.45,37.9a32.44,32.44,0,0,0-9.12-22.59l-.19-.22-.56-.55-.26-.24-.4-.39a32.49,32.49,0,0,0-22.06-8.6L74,5.2H7.67a.26.26,0,0,0-.27.17,24.88,24.88,0,0,0-.69,5.69A24.19,24.19,0,0,0,30.9,35.2h49a20.64,20.64,0,0,1,20.76,20A20.2,20.2,0,0,1,99,63.46,32.73,32.73,0,0,0,111.45,37.9Z" transform="translate(-1.34 -0.2)"></path><path class="cls-3" d="M29.12,105.2h7.76a.66.66,0,0,0,.65-.51L45.11,76.2H28.62a14.5,14.5,0,0,0-14.5,14.5h0v.7A14.75,14.75,0,0,0,29.12,105.2Z" transform="translate(-1.34 -0.2)"></path><path class="cls-4" d="M88.63,68.46A15,15,0,0,0,95.15,55.9,15.22,15.22,0,0,0,79.76,41.2H35.24a12.17,12.17,0,0,0-10.39,9L18.07,74.39A19.33,19.33,0,0,1,28.81,71.2h51A17.5,17.5,0,0,0,88.63,68.46Z" transform="translate(-1.34 -0.2)"></path><path class="cls-3" d="M142,76.41v-46h18q8,0,12.66,4.18t4.7,11.22q0,7.38-5.19,11.49c-3.45,2.74-7.82,4.11-13.08,4.11H150v15Zm8-23h9.08a10.38,10.38,0,0,0,7-2.22,7.3,7.3,0,0,0,2.61-5.84,7.1,7.1,0,0,0-2.58-5.88,10.92,10.92,0,0,0-7-2.06H150Z" transform="translate(-1.34 -0.2)"></path><path class="cls-3" d="M185,36.41v-7h8v7Zm0,39v-34h8v34Z" transform="translate(-1.34 -0.2)"></path><path class="cls-3" d="M218.93,76.65a17,17,0,0,1-12.67-5.19,17.5,17.5,0,0,1-5.07-12.68,17.59,17.59,0,0,1,5.1-12.68A17,17,0,0,1,219,40.84a17.76,17.76,0,0,1,13.71,5.91L227.84,52q-4.09-4.29-8.91-4.29A9,9,0,0,0,211.88,51a11.41,11.41,0,0,0-2.83,7.83,11.28,11.28,0,0,0,2.89,7.86,9.51,9.51,0,0,0,7.38,3.19q4.74,0,8.91-4.29L233,70.22A20.79,20.79,0,0,1,226.89,75,17.54,17.54,0,0,1,218.93,76.65Z" transform="translate(-1.34 -0.2)"></path><path class="cls-3" d="M251.9,76.47q-9.9,0-9.9-10.1v-18h-4v-7h4v-9h8v9h9v7h-9V65.24q0,4.29,4.18,4.29A10.55,10.55,0,0,0,259,68.36v6.35A14.24,14.24,0,0,1,251.9,76.47Z" transform="translate(-1.34 -0.2)"></path><path class="cls-3" d="M278.25,76.12q-5.73,0-9-3.54T266,63.05V41.41h8v19.5a9.14,9.14,0,0,0,1.91,6.21,6.79,6.79,0,0,0,5.4,2.17A7.27,7.27,0,0,0,286.87,67,8.78,8.78,0,0,0,289,60.78V41.41h8v34h-8V70.13Q284.89,76.12,278.25,76.12Z" transform="translate(-1.34 -0.2)"></path><path class="cls-3" d="M307,75.41v-34h8v8.07q3.6-9.15,12-8.75v8.68h-.45A10.57,10.57,0,0,0,318.14,53Q315,56.67,315,63.58V75.41Z" transform="translate(-1.34 -0.2)"></path><path class="cls-3" d="M348.54,76.55a17.11,17.11,0,0,1-12.58-5,17.44,17.44,0,0,1-5-12.93,18.14,18.14,0,0,1,4.74-12.68,15.56,15.56,0,0,1,12-5.2q7.8,0,12.12,5.3a20.14,20.14,0,0,1,4.32,13.16,13.92,13.92,0,0,1-.13,2.21H338.79a10.2,10.2,0,0,0,3.32,6.4,9.65,9.65,0,0,0,6.56,2.31A13.16,13.16,0,0,0,358,66l4.61,4.09A17.32,17.32,0,0,1,348.54,76.55Zm-9.81-20.14h17.61a11.11,11.11,0,0,0-2.66-6.5,7.74,7.74,0,0,0-6.05-2.53,8,8,0,0,0-6,2.5A11.16,11.16,0,0,0,338.73,56.41Z" transform="translate(-1.34 -0.2)"></path><path class="cls-3" d="M384.49,76.56a9.88,9.88,0,0,1-6.83-2.36c-1.78-1.57-2.66-3.88-2.66-6.94V45.41h-5v-2h5v-11h3v10h12v3H378V66.8q0,6.44,6.92,6.43A12.88,12.88,0,0,0,390,72.06v3.3A13,13,0,0,1,384.49,76.56Z" transform="translate(-1.34 -0.2)"></path><path class="cls-3" d="M399,75.41v-47h3V48.69a12.81,12.81,0,0,1,11.86-6.89q6.12,0,9.63,3.77A13.73,13.73,0,0,1,427,55.32V75.41h-3V55.71a11.78,11.78,0,0,0-2.79-8.25,9.92,9.92,0,0,0-7.72-3.05,11,11,0,0,0-8.21,3.34A11.61,11.61,0,0,0,402,56.24V75.41Z" transform="translate(-1.34 -0.2)"></path><path class="cls-3" d="M439,33.41v-4h4v4Zm1,42v-33h3v33Z" transform="translate(-1.34 -0.2)"></path><path class="cls-3" d="M465.93,76.52a21.14,21.14,0,0,1-7.25-1.33,22,22,0,0,1-6.34-3.48l1.89-2.53a19.22,19.22,0,0,0,11.89,4.36,9.07,9.07,0,0,0,5.72-1.76,5.61,5.61,0,0,0,2.28-4.68,4.43,4.43,0,0,0-2.24-4,27.8,27.8,0,0,0-6.54-2.6c-1.51-.43-2.62-.76-3.31-1a31,31,0,0,1-2.93-1.17,10,10,0,0,1-2.76-1.7,8.81,8.81,0,0,1-1.62-2.24,6.55,6.55,0,0,1-.75-3.15,8.24,8.24,0,0,1,3-6.6,11.83,11.83,0,0,1,7.87-2.56,20.84,20.84,0,0,1,11.76,3.63L475,48.38a18.26,18.26,0,0,0-10.2-3.32,8.54,8.54,0,0,0-5.46,1.66A5.21,5.21,0,0,0,457.22,51a3.69,3.69,0,0,0,.55,2,5.27,5.27,0,0,0,1.3,1.49,10.12,10.12,0,0,0,2.15,1.21c.93.41,1.73.72,2.4.94s1.62.5,2.83.85c1.65.47,3,.91,4,1.29a20.24,20.24,0,0,1,3.35,1.69,7.38,7.38,0,0,1,2.66,2.7,7.6,7.6,0,0,1,.88,3.74,8.63,8.63,0,0,1-3.28,7A12.51,12.51,0,0,1,465.93,76.52Z" transform="translate(-1.34 -0.2)"></path><path class="cls-3" d="M501.84,76.64q-10.83,0-17.37-8l5.58-5.2q5,6,11.92,6a8.23,8.23,0,0,0,5.63-1.92,6.43,6.43,0,0,0,2.21-5.1A5.85,5.85,0,0,0,507,57.26a13.75,13.75,0,0,0-7.61-1.85h-3.7l-1.3-5,12.24-13H487v-7h30v6l-12.63,13a18.57,18.57,0,0,1,9.65,4q3.69,3.16,3.69,8.93a13.33,13.33,0,0,1-4.44,10.33A16.36,16.36,0,0,1,501.84,76.64Z" transform="translate(-1.34 -0.2)"></path><path class="cls-3" d="M527,76.41v-46h17.15q10.79,0,17.61,6.54a21.82,21.82,0,0,1,6.84,16.46,21.8,21.8,0,0,1-6.87,16.43q-6.87,6.57-17.58,6.57Zm8-8h9q7.1,0,11.46-4.33a15.05,15.05,0,0,0,4.36-11.17,15.09,15.09,0,0,0-4.36-11.14A15.53,15.53,0,0,0,544,37.41h-9Z" transform="translate(-1.34 -0.2)"></path><path class="cls-3" d="M592.59,73a10.85,10.85,0,1,1-15.36-15.33A10.85,10.85,0,1,1,592.59,73Zm-7.71,2.11a9.34,9.34,0,0,0,7-2.86,9.6,9.6,0,0,0,2.8-7,9.46,9.46,0,0,0-2.79-6.88,9.84,9.84,0,0,0-13.84,0,9.61,9.61,0,0,0-2.81,7A9.46,9.46,0,0,0,578,72.32,9.29,9.29,0,0,0,584.88,75.15ZM581,70.41v-11h4.9a4.51,4.51,0,0,1,3.34,1.19,3.05,3.05,0,0,1,.9,2.35,3.29,3.29,0,0,1-.68,2.12,3.63,3.63,0,0,1-1.87,1.19l3,4.15h-2.8l-2.61-4H583v4Zm2-5h2.51c.7-.49,1.25-.65,1.65-1a1.63,1.63,0,0,0,.6-1.35,1.56,1.56,0,0,0-.6-1.3,2.2,2.2,0,0,0-1.65-.38H583Z" transform="translate(-1.34 -0.2)"></path></svg>