<svg id="Слой_1" data-name="Слой 1" xmlns="http://www.w3.org/2000/svg" xmlns:xlink="http://www.w3.org/1999/xlink" viewBox="0 0 1000 110.41"><defs><style>.cls-1{fill:#fff;}.cls-2{fill:url(#linear-gradient);}.cls-3{fill:#4e4bdb;}.cls-4{fill:#54ac70;}.cls-5{fill:#28287d;}.cls-6{isolation:isolate;}</style><linearGradient id="linear-gradient" x1="415.71" y1="709.93" x2="520.45" y2="709.93" gradientTransform="translate(0 -675.59)" gradientUnits="userSpaceOnUse"><stop offset="0" stop-color="#ff0d00"/><stop offset="0.07" stop-color="#fd0e09"/><stop offset="0.18" stop-color="#f90f23"/><stop offset="0.32" stop-color="#f1114c"/><stop offset="0.49" stop-color="#e71485"/><stop offset="0.57" stop-color="#e216a1"/><stop offset="1" stop-color="#681fff"/></linearGradient></defs><path class="cls-1" d="M483.1.21H416.59a5.55,5.55,0,0,0-5.41,4.21,30,30,0,0,0-.84,6.94,29.45,29.45,0,0,0,23.15,28.7,18.08,18.08,0,0,0-5,8.3l-6.87,24.47-1.36,5.65-1.4,5.83A19.72,19.72,0,0,0,438,110.21h7.83a6,6,0,0,0,5.75-4.42l7.87-29.58H489a17.8,17.8,0,0,0,3.17-.29l1.12-.16a38.26,38.26,0,0,0,32.56-37.57A37.7,37.7,0,0,0,515.26,12l-.32-.35-.63-.61-.22-.22-.51-.49A37.64,37.64,0,0,0,489,.32Zm-36.57,104.5a.7.7,0,0,1-.65.5h-7.76a14.71,14.71,0,0,1-15-13.8,14.49,14.49,0,0,1,13.76-15.19h17.2Zm-4.84-33.5h-4.08a19.33,19.33,0,0,0-10.74,3.19l6.78-24.19a12.16,12.16,0,0,1,10.39-9h45a15.23,15.23,0,0,1,15.39,14.71,14.89,14.89,0,0,1-6.52,12.56A17.57,17.57,0,0,1,489,71.21Zm46.17-65.9a32.49,32.49,0,0,1,22.06,8.6,4.89,4.89,0,0,1,.4.39l.26.24.56.55.19.21a32.53,32.53,0,0,1-.85,46c-.79.76-1.62,1.48-2.48,2.16a20.33,20.33,0,0,0,1.6-8.25c-.16-11-9.47-20-20.76-20H459.46s-14.92-.06-15.28,0h-4.25a24.19,24.19,0,0,1-24.19-24.14,23.69,23.69,0,0,1,.69-5.69.26.26,0,0,1,.26-.17H483Z"/><path class="cls-2" d="M520.45,37.91a32.44,32.44,0,0,0-9.12-22.59l-.19-.22-.56-.55-.26-.24-.4-.39a32.49,32.49,0,0,0-22.06-8.6L483,5.21H416.67a.26.26,0,0,0-.27.17,24.75,24.75,0,0,0-.69,5.69A24.2,24.2,0,0,0,439.9,35.21h49a20.63,20.63,0,0,1,20.76,20A20.23,20.23,0,0,1,508,63.47,32.73,32.73,0,0,0,520.45,37.91Z"/><path class="cls-3" d="M438.12,105.21h7.76a.67.67,0,0,0,.65-.51l7.58-28.49H437.62a14.5,14.5,0,0,0-14.5,14.5h0v.7A14.75,14.75,0,0,0,438.12,105.21Z"/><path class="cls-4" d="M497.63,68.47a15,15,0,0,0,6.52-12.56,15.22,15.22,0,0,0-15.39-14.7H444.24a12.16,12.16,0,0,0-10.39,9L427.07,74.4a19.33,19.33,0,0,1,10.74-3.19h51A17.6,17.6,0,0,0,497.63,68.47Z"/><path class="cls-5" d="M562.11,78.21v-47H580.7q8.22,0,13.07,4.31t4.85,11.59q0,7.61-5.36,11.85t-13.51,4.25h-9.64v15Zm8-22h9.64a11,11,0,0,0,7.42-2.36,7.75,7.75,0,0,0,2.77-6.21,7.56,7.56,0,0,0-2.73-6.24,11.58,11.58,0,0,0-7.46-2.19h-9.64Z"/><path class="cls-5" d="M603.11,38.2v-8h9v8Zm1,40v-35h8v35Z"/><path class="cls-5" d="M636.82,79.31a17.38,17.38,0,0,1-13-5.33,17.94,17.94,0,0,1-5.2-13,18,18,0,0,1,5.23-13,17.41,17.41,0,0,1,13-5.4A18.19,18.19,0,0,1,651,48.66l-5,5.39q-4.2-4.39-9.13-4.39A9.18,9.18,0,0,0,629.59,53a11.8,11.8,0,0,0-2.9,8,11.54,11.54,0,0,0,3,8.07,9.79,9.79,0,0,0,7.56,3.26q4.86,0,9.13-4.4l4.86,4.8a21.2,21.2,0,0,1-6.23,4.9A18,18,0,0,1,636.82,79.31Z"/><path class="cls-5" d="M668,79q-9.9,0-9.9-10.1V50.21h-4v-7h4v-10h8v10h9v7h-9V67.46c0,2.94,1.39,4.4,4.18,4.4a10.27,10.27,0,0,0,4.82-1.2v6.58A14.3,14.3,0,0,1,668,79Z"/><path class="cls-5" d="M693.89,78.94q-6,0-9.38-3.64t-3.4-9.81V43.21h9v20A9.46,9.46,0,0,0,692,69.56a6.75,6.75,0,0,0,5.39,2.23A7.18,7.18,0,0,0,703,69.46a9.1,9.1,0,0,0,2.14-6.4V43.21h8v35h-8V72.78Q700.82,78.93,693.89,78.94Z"/><path class="cls-5" d="M721.11,78.21v-35h8v8.07q3.58-9.16,12-8.75v8.68H741a11.15,11.15,0,0,0-8.65,3.52q-3.24,3.52-3.24,10.24V78.21Z"/><path class="cls-5" d="M761.69,79.73a17.57,17.57,0,0,1-12.9-5.13,17.89,17.89,0,0,1-5.16-13.26,18.57,18.57,0,0,1,4.87-13A15.94,15.94,0,0,1,760.82,43q8,0,12.43,5.43a20.69,20.69,0,0,1,4.43,13.49,14.34,14.34,0,0,1-.13,2.27H751.69a10.56,10.56,0,0,0,3.4,6.56,9.9,9.9,0,0,0,6.73,2.36,13.45,13.45,0,0,0,9.53-4.19l4.73,4.19A17.77,17.77,0,0,1,761.69,79.73Zm-9.58-21.52h18a11.35,11.35,0,0,0-2.73-6.67,7.94,7.94,0,0,0-6.19-2.6,8.13,8.13,0,0,0-6.13,2.56,11.45,11.45,0,0,0-3,6.7Z"/><path class="cls-5" d="M796.11,78.21v-39h-15v-8h38v8h-15v39Z"/><path class="cls-5" d="M825.11,78.21v-49h8v19Q837.39,42,844.33,42q6,0,9.38,3.69t3.4,9.94V78.21h-9v-20a9.54,9.54,0,0,0-1.91-6.37,6.7,6.7,0,0,0-5.4-2.23A7.21,7.21,0,0,0,835.24,52a9.14,9.14,0,0,0-2.13,6.4V78.21Z"/><path class="cls-5" d="M864.11,38.2v-8h9v8Zm1,40v-35h8v35Z"/><path class="cls-5" d="M893.42,79.17a23.45,23.45,0,0,1-14.93-5.26l3.6-5.46q5.73,4.32,11.53,4.33a6.8,6.8,0,0,0,4-1,3.36,3.36,0,0,0,1.43-2.89,2.74,2.74,0,0,0-.5-1.64A4.37,4.37,0,0,0,896.78,66a17.89,17.89,0,0,0-2.13-.86l-2.86-.86-.6-.2c-1.25-.35-2.3-.7-3.17-1a24,24,0,0,1-2.9-1.37,10.6,10.6,0,0,1-2.6-1.9,8.14,8.14,0,0,1-1.66-2.63,9.24,9.24,0,0,1-.67-3.6,9.59,9.59,0,0,1,3.57-7.79,13.63,13.63,0,0,1,9-2.93,23,23,0,0,1,12.93,4l-3.2,5.73q-5.46-3.33-9.93-3.34a5.85,5.85,0,0,0-3.63,1,3.2,3.2,0,0,0-1.29,2.67,2.65,2.65,0,0,0,1.16,2.06,8.55,8.55,0,0,0,2.33,1.37c.78.29,2,.72,3.77,1.3a2.26,2.26,0,0,0,.33.13,1.28,1.28,0,0,0,.34.07c1.33.41,2.64.89,3.93,1.43a21.34,21.34,0,0,1,3.36,1.9A8.16,8.16,0,0,1,905.54,64a8.6,8.6,0,0,1,.93,4.08,9.81,9.81,0,0,1-3.66,8.2A14.85,14.85,0,0,1,893.42,79.17Z"/><path class="cls-5" d="M934.75,78.19a20.31,20.31,0,0,1-17-8.49l2.65-2.22Q926.21,75,934.82,75A11.77,11.77,0,0,0,943,72a9.75,9.75,0,0,0,3.31-7.61,8.59,8.59,0,0,0-4-7.55q-4-2.69-10.42-2.69h-2.67l-.84-1.89,15.66-18H920.11v-4h29V32.7L933.42,51a25.32,25.32,0,0,1,5.86,1,22.1,22.1,0,0,1,5.19,2.36,11.1,11.1,0,0,1,3.91,4.11,12,12,0,0,1,1.46,6,12.52,12.52,0,0,1-4.47,9.88A15.73,15.73,0,0,1,934.75,78.19Z"/><path class="cls-5" d="M960.11,77.21v-47h15.64q11,0,18,6.68a22.3,22.3,0,0,1,7,16.82,22.25,22.25,0,0,1-7,16.78q-7,6.72-18,6.72Zm3-3h12q9.46,0,15.26-5.7a19.23,19.23,0,0,0,5.79-14.3A19.29,19.29,0,0,0,990.35,40q-5.79-5.76-15.26-5.76h-12Z"/><g class="cls-6"><g class="cls-6"><path class="cls-5" d="M6.86,76.65V30.46H23.62q7.72,0,12.44,3.79a12.68,12.68,0,0,1,4.72,10.46A12.78,12.78,0,0,1,35.6,55.57a20.89,20.89,0,0,1-12.83,3.86H10.29V76.65Zm3.43-20.39H23q6.48,0,10.43-3.14a10.09,10.09,0,0,0,4-8.34,9.78,9.78,0,0,0-3.79-8.25q-3.8-2.91-10.2-2.91H10.29Z"/></g><g class="cls-6"><path class="cls-5" d="M77.5,72.23a16.39,16.39,0,0,1-12.37,5.21,16.24,16.24,0,0,1-12.31-5.18,18.07,18.07,0,0,1,.07-24.84A16.41,16.41,0,0,1,65.26,42.2a16.28,16.28,0,0,1,12.31,5.18,18.06,18.06,0,0,1-.07,24.85ZM65.26,74.41a12.87,12.87,0,0,0,9.67-4.29,15.13,15.13,0,0,0,0-20.63,13.07,13.07,0,0,0-9.8-4.25,12.89,12.89,0,0,0-9.7,4.25,15.25,15.25,0,0,0,0,20.66A13,13,0,0,0,65.26,74.41Z"/><path class="cls-5" d="M98.92,76.91,86.58,43h3.63l10.16,29.57,10.16-29.7h2.58l10.16,29.7L133.43,43h3.5L124.59,76.91h-2.77l-10-28.83-10.1,28.83Z"/></g><g class="cls-6"><path class="cls-5" d="M160.15,77.44a15.71,15.71,0,0,1-11.64-5,17.39,17.39,0,0,1-4.85-12.73,18,18,0,0,1,4.58-12.48,14.76,14.76,0,0,1,11.39-5.08,14,14,0,0,1,11.18,5,18.77,18.77,0,0,1,4.26,12.6,9.71,9.71,0,0,1-.07,1.32H147.09a14.24,14.24,0,0,0,4.26,9.67,12.55,12.55,0,0,0,8.94,3.6,15.37,15.37,0,0,0,11.55-5.28l2.24,2A18.39,18.39,0,0,1,160.15,77.44Zm-13.06-19.2h24.48a16,16,0,0,0-3.5-9.31,10.51,10.51,0,0,0-8.57-3.76,11.19,11.19,0,0,0-8.45,3.73A15,15,0,0,0,147.09,58.24Z"/></g><g class="cls-6"><path class="cls-5" d="M184.5,76.65V43h3.23v9.57a17.76,17.76,0,0,1,6-7.45,14,14,0,0,1,8.87-2.64V46h-.33A13.69,13.69,0,0,0,192,50.52q-4.22,4.48-4.22,12.34V76.65Z"/></g><g class="cls-6"><path class="cls-5" d="M223.43,77.44a15.71,15.71,0,0,1-11.64-5,17.39,17.39,0,0,1-4.85-12.73,18,18,0,0,1,4.58-12.48,14.76,14.76,0,0,1,11.39-5.08,14,14,0,0,1,11.18,5,18.77,18.77,0,0,1,4.26,12.6,9.71,9.71,0,0,1-.07,1.32H210.37a14.27,14.27,0,0,0,4.25,9.67,12.59,12.59,0,0,0,8.95,3.6,15.37,15.37,0,0,0,11.55-5.28l2.24,2A18.39,18.39,0,0,1,223.43,77.44Zm-13.06-19.2h24.48a16,16,0,0,0-3.5-9.31,10.51,10.51,0,0,0-8.58-3.76,11.18,11.18,0,0,0-8.44,3.73A15,15,0,0,0,210.37,58.24Z"/><path class="cls-5" d="M262,77.44a15.8,15.8,0,0,1-11.41-4.85q-5-4.84-4.95-12.77t4.95-12.73A15.76,15.76,0,0,1,262,42.2q8.58,0,13.86,8V28.48h3.23V76.65h-3.23V69.13Q270.36,77.44,262,77.44Zm-9-7.12a12.45,12.45,0,0,0,9.33,4,13.16,13.16,0,0,0,9.6-4.12A14.18,14.18,0,0,0,276,59.76,14,14,0,0,0,271.9,49.4a13.22,13.22,0,0,0-9.6-4.1,12.5,12.5,0,0,0-9.43,3.93q-3.76,3.93-3.77,10.59A14.54,14.54,0,0,0,253,70.32Z"/></g><g class="cls-6"><path class="cls-5" d="M328.22,77.44q-8.58,0-13.86-8v7.26h-3.23V28.48h3.23v22q5.47-8.31,13.86-8.32a15.84,15.84,0,0,1,11.41,4.85q5,4.86,4.95,12.77t-4.95,12.74A15.75,15.75,0,0,1,328.22,77.44Zm-.33-3.1a12.53,12.53,0,0,0,9.44-3.93q3.75-3.91,3.76-10.59a14.53,14.53,0,0,0-3.86-10.49,12.5,12.5,0,0,0-9.34-4,13.17,13.17,0,0,0-9.6,4.13,14.18,14.18,0,0,0-4.13,10.46,14,14,0,0,0,4.13,10.36A13.21,13.21,0,0,0,327.89,74.34Z"/></g><g class="cls-6"><path class="cls-5" d="M357.12,87.41A16.58,16.58,0,0,1,350.45,86l1.13-2.84a13,13,0,0,0,5.74,1.25,6.44,6.44,0,0,0,4.55-1.78,18.14,18.14,0,0,0,3.76-6.14L349.46,43h3.77l14,30.1L379.36,43h3.56L368.34,77.84q-2.18,5.14-4.85,7.36A9.7,9.7,0,0,1,357.12,87.41Z"/></g></g></svg>