<svg id="Слой_1" data-name="Слой 1" xmlns="http://www.w3.org/2000/svg" xmlns:xlink="http://www.w3.org/1999/xlink" viewBox="0 0 1000 1000"><defs><style>.cls-1{fill:#fff;}.cls-2{fill:url(#Безымянный_градиент_13);}.cls-3{fill:#4e4bdb;}.cls-4{fill:#54ac70;}</style><linearGradient id="Безымянный_градиент_13" x1="235.25" y1="403.67" x2="723.53" y2="403.67" gradientUnits="userSpaceOnUse"><stop offset="0" stop-color="#ff0d00"/><stop offset="0.07" stop-color="#fd0e09"/><stop offset="0.18" stop-color="#f90f23"/><stop offset="0.32" stop-color="#f1114c"/><stop offset="0.49" stop-color="#e71485"/><stop offset="0.57" stop-color="#e216a1"/><stop offset="1" stop-color="#681fff"/></linearGradient></defs><title>Mark_color_dark bg</title><path class="cls-1" d="M549,243.15H239.71a25.86,25.86,0,0,0-25.26,19.68,137.06,137.06,0,0,0-3.92,32.39c0,65.61,46.37,120.59,108.11,134.06A84.29,84.29,0,0,0,295.35,468L263.29,582.3l-6.35,26.37-6.56,27.24a92.49,92.49,0,0,0-4.53,33.41c2.32,49.08,43.65,87.53,94.1,87.53h36a27.9,27.9,0,0,0,26.93-20.7l36.83-138.51H576.4a82.13,82.13,0,0,0,14.8-1.32l5.22-.76c86.21-12.44,151.83-88,151.83-175.24A175.79,175.79,0,0,0,699,298c-.44-.5-.94-1-1.49-1.6-1-1-2-2-2.94-2.88l-1-1c-.8-.78-1.6-1.55-2.4-2.29a175.51,175.51,0,0,0-114.49-46.56ZM379,729.8a3.16,3.16,0,0,1-3,2.33H340c-37.23,0-67.71-28.1-69.4-64a67.23,67.23,0,0,1,67.15-70.5h76.44ZM356.59,572.92l-.06,0H337.7a91.06,91.06,0,0,0-50.3,14.93l31.76-113.25c6.5-23.27,25.93-40,48.66-42.17h208.5c39.18,0,71.5,30.9,72.06,68.87a70,70,0,0,1-30.53,58.82c-12.93,8.17-28.6,12.78-41.45,12.78Zm215-304.54a151.59,151.59,0,0,1,102.86,40.1c.64.58,1.26,1.19,1.88,1.8l1.18,1.14c.86.81,1.67,1.63,2.61,2.56l.88,1a151.23,151.23,0,0,1,42.54,105.37c0,47.61-22.52,91-57.93,119.15A94.4,94.4,0,0,0,673.1,501c-.76-51.41-44.17-93.23-96.78-93.23H439.18l-66-.25c-1.77,0-3.53,0-5.24.16l-1.14.09H348c-62.18,0-112.78-50.47-112.78-112.51a112,112,0,0,1,3.22-26.54,1.28,1.28,0,0,1,1.24-.81H549Z"/><path class="cls-2" d="M723.53,420.32A151.23,151.23,0,0,0,681,315l-.88-1c-.94-.93-1.75-1.75-2.61-2.56l-1.18-1.14c-.62-.61-1.24-1.22-1.88-1.8a151.59,151.59,0,0,0-102.86-40.1L549,267.87H239.71a1.28,1.28,0,0,0-1.24.81,112,112,0,0,0-3.22,26.54c0,62,50.6,112.51,112.78,112.51h18.79l1.14-.09c1.71-.11,3.47-.16,5.24-.16l66,.25H576.32c52.61,0,96,41.82,96.78,93.23a94.4,94.4,0,0,1-7.5,38.51C701,511.36,723.53,467.93,723.53,420.32Z"/><path class="cls-3" d="M340,732.13h36a3.16,3.16,0,0,0,3-2.33l35.14-132.14H337.7a67.23,67.23,0,0,0-67.15,70.5C272.24,704,302.72,732.13,340,732.13Z"/><path class="cls-4" d="M617.85,560.14a70,70,0,0,0,30.53-58.82c-.56-38-32.88-68.87-72.06-68.87H367.82c-22.73,2.15-42.16,18.9-48.66,42.17L287.4,587.87a91.06,91.06,0,0,1,50.3-14.93h18.83l.06,0H576.4C589.25,572.92,604.92,568.31,617.85,560.14Z"/></svg>